<svg xmlns="http://www.w3.org/2000/svg" viewBox="0 0 512 512" width="512" height="512"><g><path d="M156.558,71.488C147.431,81.161 139.387,91.981 133.532,102.27L149.286,110.973C155.036,101.363 161.931,91.832 169.13,84.367C165.019,79.997 160.828,75.703 156.558,71.488ZM125.837,120.256C122.17,132.861 119.791,145.461 119.126,158.107L137.11,158.789C137.932,147.818 139.82,136.043 142.86,126.099C137.222,124.046 131.547,122.098 125.837,120.256ZM119.001,176.443L119.001,212.441L137.001,212.441L137.001,176.443L119.001,176.443ZM119.001,230.439L119.001,266.436L137.001,266.436L137.001,230.439L119.001,230.439ZM119.001,284.434L119.001,320.43L137.001,320.43L137.001,284.434L119.001,284.434ZM119.001,338.428L119.001,374.424L137.001,374.424L137.001,338.428L119.001,338.428ZM119.001,392.421L119.001,428.418L137.001,428.418L137.001,392.422L119.001,392.421ZM119.001,447.416C118.98,457.678 118.933,467.752 119.001,478.014C131.953,477.68 144.973,478.014 157.929,478.014L157.929,460.014L137,460.014L137,447.416L119.001,447.416ZM181.881,459.624L181.881,477.624L217.877,477.624L217.877,459.624L181.881,459.624ZM235.875,459.624L235.875,477.624L271.871,477.624L271.871,459.624L235.875,459.624ZM289.869,459.624L289.869,477.624L325.865,477.624L325.865,459.624L289.869,459.624Z" style="fill:white;fill-rule:nonzero;stroke:black;stroke-width:3px;"/><g transform="matrix(1,0,0,1,2,0)"><rect x="372.909" y="175.468" width="18" height="35.996" style="fill:white;fill-rule:nonzero;stroke:black;stroke-width:3px;"/></g><g transform="matrix(1,0,0,1,2.66516,0)"><path d="M356.281,69.935C365.408,79.608 373.452,90.428 379.307,100.717L363.553,109.42C357.803,99.81 350.908,90.279 343.709,82.814C347.82,78.444 352.011,74.15 356.281,69.935ZM372.909,229.124L372.909,265.12L390.909,265.12L390.909,229.124L372.909,229.124ZM372.909,283.076L372.909,319.072L390.909,319.072L390.909,283.076L372.909,283.076ZM372.909,337.325L372.909,373.321L390.909,373.321L390.909,337.325L372.909,337.325ZM372.909,391.278L372.909,427.274L390.909,427.274L390.909,391.278L372.909,391.278Z" style="fill:white;fill-rule:nonzero;stroke:black;stroke-width:3px;"/></g><g transform="matrix(0.997168,0.0752106,-0.0752106,0.997168,9.43206,-19.1043)"><path d="M225.134,37.867L228.905,55.465C239.929,53.497 251.648,52.445 262.005,52.979C262.605,47.009 263.094,41.029 263.472,35.041C250.655,34.748 236.567,35.621 225.134,37.867Z" style="fill:white;fill-rule:nonzero;stroke:black;stroke-width:3px;"/></g><g transform="matrix(0.997168,0.0752106,-0.0752106,0.997168,9.43206,-19.1043)"><path d="M291.129,36.509L288.359,54.292C299.357,56.395 310.676,59.604 320.158,63.805C322.852,58.445 325.447,53.035 327.941,47.579C315.724,42.324 302.801,38.478 291.128,36.509L291.129,36.509Z" style="fill:white;fill-rule:nonzero;stroke:black;stroke-width:3px;"/></g><g transform="matrix(0.999733,0.0231142,-0.0231142,0.999733,5.86093,-9.48756)"><path d="M202.18,43.645L207.586,60.811C197.028,64.54 186.319,69.41 177.574,74.986C174.106,70.091 170.729,65.132 167.445,60.111C178.736,53.083 190.936,47.342 202.181,43.645L202.18,43.645Z" style="fill:white;fill-rule:nonzero;stroke:black;stroke-width:3px;"/></g><g transform="matrix(1,0,0,1,2,0)"><path d="M384.864,119.144C388.531,131.749 390.91,144.349 391.575,156.995L373.591,157.677C372.769,146.706 370.881,134.931 367.841,124.987C373.478,122.934 379.154,120.986 384.864,119.144Z" style="fill:white;fill-rule:nonzero;stroke:black;stroke-width:3px;"/></g><g transform="matrix(-1,0,0,1,514,0)"><path d="M121.126,447.416C121.105,457.678 121.058,467.752 121.126,478.014C134.078,477.68 147.098,478.014 160.054,478.014L160.054,460.014L139.125,460.014L139.125,447.416L121.126,447.416Z" style="fill:white;fill-rule:nonzero;stroke:black;stroke-width:3px;"/></g><g transform="matrix(1,0,0,1,0,-1)"><path d="M363.08,451.164L148.442,450.291L149.336,163.661C151.215,34.164 361.973,34.047 363.08,164.555L363.08,451.164Z" style="fill:white;stroke:black;stroke-width:3px;stroke-linecap:round;stroke-miterlimit:1.5;"/></g><g transform="matrix(1,5.48299e-06,5.48299e-06,0.980188,-16.0025,8.89538)"><path d="M207.024,76.426L206.921,449.052L207.024,76.426Z" style="fill:none;stroke:black;stroke-width:3.03px;stroke-linecap:square;stroke-linejoin:miter;stroke-miterlimit:1.5;"/></g><g transform="matrix(1,-7.55684e-06,-7.55684e-06,1.02731,33.0034,-12.2599)"><path d="M207.024,76.426L206.921,449.052" style="fill:none;stroke:black;stroke-width:2.96px;stroke-linecap:square;stroke-linejoin:miter;stroke-miterlimit:1.5;"/></g><g transform="matrix(1,-5.5368e-06,-5.5368e-06,1.02001,76.0025,-8.98268)"><path d="M207.024,76.426L206.921,449.052" style="fill:none;stroke:black;stroke-width:2.97px;stroke-linecap:square;stroke-linejoin:miter;stroke-miterlimit:1.5;"/></g><g transform="matrix(1,2.21122e-06,1.75726e-06,0.970945,115.999,13.0469)"><path d="M207.024,76.426L206.921,449.052" style="fill:none;stroke:black;stroke-width:3.04px;stroke-linecap:square;stroke-linejoin:miter;stroke-miterlimit:1.5;"/></g><g transform="matrix(1,0,0,1,-100.448,17.8344)"><circle cx="269.721" cy="266.845" r="6.6" style="fill:none;stroke:black;stroke-width:3px;stroke-linecap:square;stroke-linejoin:miter;stroke-miterlimit:1.5;"/></g></g></svg>