<?xml version="1.0" encoding="utf-8"?>
<!-- Generator: Adobe Illustrator 13.0.0, SVG Export Plug-In . SVG Version: 6.00 Build 14948)  -->
<!DOCTYPE svg PUBLIC "-//W3C//DTD SVG 1.1//EN" "http://www.w3.org/Graphics/SVG/1.1/DTD/svg11.dtd">
<svg version="1.1" id="Layer_1" xmlns="http://www.w3.org/2000/svg" xmlns:xlink="http://www.w3.org/1999/xlink" x="0px" y="0px"
	 width="512px" height="512px" viewBox="0 0 512 512" enable-background="new 0 0 512 512" xml:space="preserve">
<path fill="#FFFFFF" d="M247,18.656c-80.965,0-146.875,65.02-146.875,145.625c0,45.63,15.758,67,33.313,94.845
	c11.706,18.569,23.767,39.91,30.53,70.563h165.095c6.729-31.387,18.91-53.121,30.72-71.875c17.58-27.92,33.313-48.914,33.313-93.532
	c0-80.66-65.127-145.624-146.094-145.624L247,18.656z M169.813,348.375V389.5L315,348.375H169.813L169.813,348.375z
	 M323.406,365.438l-153.594,43.53v29.438l153.594-43.5v-29.471V365.438z M323.406,414.313L203.97,448.156h119.436V414.313
	L323.406,414.313z M190.844,466.843v20.533h113.282v-20.53h-113.28L190.844,466.843z M258.984,166.75l63.64,63.64l-12.373,12.374
	l-63.64-63.64l-63.64,63.64l-12.375-12.374l63.641-63.641l-63.64-63.64l12.374-12.374l63.64,63.64l63.64-63.639l12.374,12.374
	L258.984,166.75z"/>
</svg>
